Coordinates
version=1
nRows=19
nColumns=24
inDegrees=yes

Units are S.I. units (second, meters, Newtons, ...)
Angles are in degrees.

endheader
time	pelvis_tilt	pelvis_list	pelvis_rotation	pelvis_tx	pelvis_ty	pelvis_tz	hip_flexion_r	hip_adduction_r	hip_rotation_r	knee_angle_r	ankle_angle_r	subtalar_angle_r	mtp_angle_r	hip_flexion_l	hip_adduction_l	hip_rotation_l	knee_angle_l	ankle_angle_l	subtalar_angle_l	mtp_angle_l	lumbar_extension	lumbar_bending	lumbar_rotation
      0.74550000	     -5.65183364	      2.87938699	      1.07742422	     -0.38936437	      1.06349291	      0.33613317	     18.07303718	      0.28272647	     -0.82906284	    -20.95224655	      7.54647300	     -5.01673951	      9.25343855	     23.99577525	     -2.39967849	     -4.38720043	    -70.81275145	      9.68159344	     11.21757143	      5.66427016	    -11.62563334	      2.30562410	      1.49273865
      0.74966667	     -5.63881261	      2.98193125	      0.89754885	     -0.38427983	      1.06436358	      0.33673681	     17.63102656	      0.24295962	     -0.67865081	    -20.65797008	      7.62003703	     -4.93738501	      9.25374711	     24.43972833	     -2.38631982	     -4.57196889	    -70.32699739	      9.91420104	     11.43454243	      5.67973783	    -11.61534551	      2.15051770	      1.58046927
      0.75383333	     -5.60606286	      3.07744010	      0.71922867	     -0.37921853	      1.06524302	      0.33734602	     17.16362020	      0.21023532	     -0.52263027	    -20.35144140	      7.70320533	     -4.87793958	      9.25352345	     24.85318455	     -2.38376964	     -4.75380841	    -69.80181562	     10.12811201	     11.65865263	      5.69579130	    -11.63728581	      1.99327579	      1.72887503
      0.75800000	     -5.55123984	      3.16915954	      0.54641357	     -0.37417419	      1.06612756	      0.33794855	     16.66831036	      0.18020166	     -0.36118194	    -20.03432509	      7.78712128	     -4.86749010	      9.24957674	     25.23318352	     -2.38125450	     -4.92114501	    -69.23778767	     10.31049906	     11.85359247	      5.72050571	    -11.69463119	      1.82762241	      2.02235059
      0.76216667	     -5.55918031	      3.28112099	      0.35704765	     -0.36912234	      1.06686953	      0.33856829	     16.25504256	      0.12866950	     -0.18010426	    -19.74456868	      7.85957113	     -4.81459812	      9.24806703	     25.66424567	     -2.36598598	     -5.11961453	    -68.63053476	     10.46627359	     11.96643603	      5.73463266	    -11.66604842	      1.66753464	      2.12729937
      0.76633333	     -5.51914184	      3.37929775	      0.17362267	     -0.36408611	      1.06765707	      0.33919550	     15.78034088	      0.09102103	     -0.00467941	    -19.43051485	      7.94086115	     -4.80713896	      9.24216233	     26.03505454	     -2.36707099	     -5.30776138	    -67.99275302	     10.60147494	     12.07100818	      5.75702950	    -11.69653464	      1.48028921	      2.37283615
      0.77050000	     -5.51497309	      3.47359672	     -0.01447572	     -0.35904836	      1.06834283	      0.33980979	     15.35137658	      0.05405576	      0.17357558	    -19.13039841	      8.00711173	     -4.75186862	      9.24044424	     26.43413466	     -2.37474767	     -5.50326476	    -67.32582017	     10.72271419	     12.11498797	      5.76674667	    -11.68063581	      1.33385424	      2.44959027
      0.77466667	     -5.47758649	      3.57512027	     -0.19488747	     -0.35403152	      1.06906288	      0.34042217	     14.88238432	      0.00763703	      0.35987143	    -18.81959413	      8.08686847	     -4.77770751	      9.23159805	     26.78275603	     -2.36841933	     -5.68435391	    -66.61047637	     10.81213933	     12.14591943	      5.78646583	    -11.71003514	      1.15263661	      2.71214650
      0.77883333	     -5.48468343	      3.67378028	     -0.38263024	     -0.34901609	      1.06965521	      0.34103436	     14.46921858	     -0.03713878	      0.55147111	    -18.52094365	      8.15016323	     -4.76474045	      9.21970035	     27.16884816	     -2.36942287	     -5.87320747	    -65.86884018	     10.88850531	     12.12639723	      5.80851303	    -11.68366632	      0.98821435	      2.89733759
      0.78300000	     -5.48428143	      3.78100016	     -0.56397106	     -0.34400657	      1.07023022	      0.34162699	     14.05361854	     -0.09759028	      0.72524766	    -18.23646808	      8.23876584	     -4.73023491	      9.21579494	     27.53365175	     -2.35750869	     -6.05890979	    -65.08796349	     10.93795135	     12.08069890	      5.81594579	    -11.66212347	      0.83436247	      2.96422327
      0.78716667	     -5.47584278	      3.89117621	     -0.74442538	     -0.33901334	      1.07078360	      0.34221279	     13.62952770	     -0.16396679	      0.90355216	    -17.94804007	      8.32527922	     -4.70946322	      9.21055036	     27.87687698	     -2.33884435	     -6.23809551	    -64.27062118	     10.96617313	     11.98933602	      5.82243663	    -11.65733373	      0.66072341	      3.08654567
      0.79133333	     -5.46367957	      3.97064998	     -0.90368151	     -0.33403590	      1.07128057	      0.34275547	     13.19339953	     -0.20366555	      1.06403072	    -17.64586227	      8.41508339	     -4.72545831	      9.19769086	     28.21665467	     -2.34003111	     -6.37957298	    -63.44310515	     10.97381771	     11.85436865	      5.83628622	    -11.66011847	      0.49993058	      3.31414558
      0.79550000	     -5.47472422	      4.07637801	     -1.07750741	     -0.32905600	      1.07172134	      0.34330266	     12.79712318	     -0.27333652	      1.23304705	    -17.36965445	      8.49955088	     -4.69551601	      9.19010567	     28.55730924	     -2.31758940	     -6.54325500	    -62.56293636	     10.96971036	     11.71155381	      5.84254277	    -11.63046505	      0.34859565	      3.40432799
      0.79966667	     -5.47926949	      4.16729355	     -1.23788257	     -0.32409040	      1.07212843	      0.34381696	     12.39022288	     -0.33260650	      1.38884909	    -17.08731235	      8.59056020	     -4.67523319	      9.18157220	     28.88466016	     -2.30034528	     -6.68040946	    -61.66053749	     10.93982628	     11.51898197	      5.84728490	    -11.61496580	      0.20185392	      3.51848540
      0.80383333	     -5.48630834	      4.26269306	     -1.38989069	     -0.31913399	      1.07249061	      0.34430943	     11.98901972	     -0.40162040	      1.53365530	    -16.81024669	      8.68859764	     -4.65226393	      9.17283482	     29.20267269	     -2.26938348	     -6.80312538	    -60.72579426	     10.88892019	     11.29521999	      5.85086116	    -11.59810869	      0.05145187	      3.62879976
      0.80800000	     -5.48716109	      4.34458833	     -1.53695423	     -0.31420043	      1.07281098	      0.34477028	     11.58364155	     -0.46054671	      1.66933151	    -16.53739403	      8.79024737	     -4.62625965	      9.16378559	     29.50580198	     -2.24515640	     -6.90901125	    -59.76908195	     10.82402762	     11.04693076	      5.85353577	    -11.59327363	     -0.08129413	      3.73633893
      0.81216667	     -5.51563396	      4.42118174	     -1.67536760	     -0.30926585	      1.07303837	      0.34519946	     11.21124454	     -0.51777062	      1.79676821	    -16.27197315	      8.89495498	     -4.60135242	      9.15427391	     29.82859271	     -2.21861944	     -6.99620834	    -58.78791364	     10.74185140	     10.77672236	      5.85516609	    -11.55637906	     -0.20354507	      3.83535233
      0.81633333	     -5.52855581	      4.49299828	     -1.80724992	     -0.30434845	      1.07325410	      0.34559972	     10.82346857	     -0.57481295	      1.91281944	    -16.00837056	      9.00381965	     -4.57071164	      9.14394301	     30.12285001	     -2.18657099	     -7.06533444	    -57.77850224	     10.64354850	     10.47914691	      5.85572115	    -11.54166377	     -0.31951616	      3.92653409
      0.82050000	     -5.52973550	      4.56212239	     -1.93321160	     -0.29944044	      1.07345647	      0.34596874	     10.42470945	     -0.63447746	      2.01658077	    -15.74846120	      9.11638888	     -4.53342813	      9.13325175	     30.39061303	     -2.14673727	     -7.11659278	    -56.73789823	     10.52678079	     10.16228561	      5.85516215	    -11.54497623	     -0.42765766	      4.00377231
